<svg width="52" height="55" viewBox="0 0 52 55" fill="none" xmlns="http://www.w3.org/2000/svg">
<path fill-rule="evenodd" clip-rule="evenodd" d="M7.39717 14.7165L11.9743 14.6821V12.7867C11.9365 12.7845 11.8977 12.7833 11.8578 12.7833H6.63606C3.38398 12.7833 3.64459 16.3055 3.40344 18.185C3.28736 19.0887 3.21069 19.9613 3.15102 20.8361C2.94227 23.8931 2.27946 28.3139 2.07081 31.371C1.88251 34.1275 1.30487 39.0405 0.997518 41.9127C0.849427 43.295 0 51.3009 0 52.5292C0 53.8966 1.33618 55 2.50215 55H49.498C50.6738 55 52 53.7998 52 52.6367C52 50.4649 50.7177 39.6992 50.4675 36.7476C50.2068 33.6708 49.5693 29.1076 49.3891 26.2109C49.2812 24.4774 48.9662 22.6612 48.849 20.9435C48.7777 19.8994 48.4188 15.3342 48.0519 14.5334C47.58 13.5037 46.6538 12.7833 45.3639 12.7833H39.9689V14.6988C40.9994 14.7733 43.9238 14.7181 44.4938 14.7166C46.9899 14.7104 46.1582 14.8967 46.7319 18.952C47.1947 22.2227 47.4498 27.4063 47.9125 30.6769C48.0535 31.6737 48.1173 32.6157 48.2019 33.6137L49.3928 45.3283C49.4562 46.2543 49.6288 47.3301 49.706 48.2417C49.7906 49.239 49.854 50.1829 49.9956 51.1786C50.1404 52.1988 50.3784 53.1738 48.9539 53.1738H3.046C2.51776 53.1738 2.11863 52.997 1.9486 52.6393C1.80249 52.3319 3.03138 40.8744 3.17315 39.5494L5.55032 16.1155C5.63272 14.7074 5.96792 14.7102 7.39717 14.7165ZM35.2067 10.7891C35.3723 12.9438 35.2469 15.4176 35.2469 17.5097C35.2469 18.0308 35.1985 18.597 35.2402 19.0745H37.2042C37.2048 19.0544 37.2051 19.0341 37.2051 19.0136V11.3867C37.2051 11.1868 37.2001 10.9875 37.1903 10.7891C36.9871 6.66081 34.6874 2.8956 31.0435 1.14285C29.6351 0.46543 28.1802 0.0883841 26.7176 0H25.3663C23.903 0.088189 22.4445 0.461334 21.0302 1.10822C20.4294 1.38293 19.8451 1.7911 19.3638 2.14824C18.7344 2.61562 18.4316 2.91248 17.8673 3.46347C15.9966 5.28978 14.942 8.01359 14.8093 10.7891C14.7997 10.9881 14.7949 11.1874 14.7949 11.3867V19.0136C14.7949 19.0341 14.7952 19.0544 14.7958 19.0745H16.7582C16.7944 18.6289 16.7532 18.1066 16.7532 17.6171C16.7531 15.6412 16.6232 13.0311 16.7935 10.7891C16.886 9.573 17.0667 8.46507 17.4045 7.62552C18.3755 5.21183 20.4063 3.231 22.8842 2.40178C25.0553 1.6753 26.8311 1.64818 29.0341 2.37525C31.5086 3.19197 33.5809 5.11516 34.564 7.54923C34.9238 8.43981 35.1124 9.56275 35.2067 10.7891ZM19.5811 12.7833L19.5816 14.7168H32.3621V12.7833H19.5811Z" fill="white"/>
</svg>
