<svg width="327" height="116" viewBox="0 0 327 116" fill="none" xmlns="http://www.w3.org/2000/svg">
<path d="M285.58 112.251H306.199C317.544 112.251 326.419 106.243 326.419 97.9016C326.419 91.096 319.813 84.0893 310.337 83.4884V83.2225C317.077 82.3547 320.881 77.6836 320.881 73.8804C320.881 67.8075 313.874 63.8043 303.464 63.8043H285.58V64.4042H288.117C291.653 64.4042 292.053 64.7381 292.053 67.9415V107.578C292.053 110.781 291.653 111.114 288.117 111.114H285.58V112.251ZM296.524 110.58V110.447C297.392 109.646 297.726 108.579 297.726 107.044V68.5424C297.726 67.0067 297.392 65.8729 296.524 65.0721V65.0051H302.463C309.802 65.0051 314.608 68.6084 314.608 74.0133C314.608 79.2853 309.936 83.0226 303.464 83.0226H300.528V84.1563H304.397C313.541 84.1563 320.079 89.8952 320.079 97.9016C320.079 105.509 314.007 110.58 304.865 110.58H296.524Z" fill="#FFBA80"/>
<path d="M256.728 111.114C242.983 111.114 235.642 102.507 235.642 86.5587C235.642 72.2115 242.849 64.471 256.194 64.471C269.808 64.471 277.148 73.0793 277.148 89.0272C277.148 103.373 270.008 111.114 256.728 111.114ZM256.462 112.315C272.677 112.315 283.554 102.507 283.554 87.7595C283.554 73.0794 272.677 63.2703 256.462 63.2703C240.112 63.2703 229.237 73.0794 229.237 87.7595C229.237 102.507 240.112 112.315 256.462 112.315Z" fill="#FFBA80"/>
<path d="M184.861 112.306H205.48C216.825 112.306 225.7 106.243 225.7 97.9015C225.7 91.0959 219.095 84.0893 209.619 83.4884V83.2225C216.358 82.3546 220.161 75.5426 220.161 71.7404C220.161 65.6665 213.145 59.1619 202.745 59.1619H185.339V59.8011L187.554 59.8043C190.659 59.8064 191.334 60.1627 191.334 63.3554V107.578C191.334 110.775 190.929 111.114 187.398 111.114H184.861V112.306ZM195.805 110.58V110.447C196.673 109.646 197.006 108.578 197.006 107.044V63.9563C197.006 62.4206 196.673 61.2315 195.805 60.4296V60.3626H201.744C209.085 60.3626 213.889 66.4674 213.889 71.8723C213.889 77.1454 209.215 83.0225 202.745 83.0225H199.809V84.1563H203.679C212.822 84.1563 219.361 89.8952 219.361 97.9015C219.361 105.509 213.288 110.58 204.147 110.58H195.805Z" fill="#FFBA80"/>
<path d="M138.143 112.297H152.821V111.166H149.99C147.306 111.166 146.19 110.737 146.19 109.591C146.19 108.732 146.786 107.444 147.904 105.582L158.185 87.8999L167.798 105.869C168.766 107.371 169.362 108.518 169.362 109.375C169.362 110.593 168.094 111.166 165.04 111.166H163.327V112.369H182.326V111.166H180.91C178.302 111.166 177.631 109.806 174.95 105.582L163.103 83.4618L171.262 70.3472C174.094 65.7654 175.212 64.7636 177.67 64.7636H178.638V64.1191H164.928V64.7636H167.834C170.443 64.7636 171.485 65.1932 171.485 66.2663C171.485 67.1257 170.889 68.4147 169.697 70.2047L162.283 82.0292L155.483 68.822C154.514 67.0332 152.503 65.2432 151.311 64.8859V64.7423H155.782V64.0978H141.699V64.7423H142.667C144.903 64.7423 146.543 65.7441 149.002 70.327L157.44 86.5397L146.264 105.654C143.507 110.235 142.241 111.31 138.888 111.31H138.143V112.297Z" fill="#FFBA80"/>
<path d="M0 112.291H22.6216C35.0683 112.291 44.8051 105.706 44.8051 96.554C44.8051 89.0869 37.5581 81.3996 27.1619 80.7402V80.4487C34.5557 79.4969 38.728 74.3716 38.728 70.1983C38.728 63.5362 31.0417 59.1438 19.6203 59.1438H0V59.8021H2.78224C6.66205 59.8021 7.10129 60.1691 7.10129 63.683V107.169C7.10129 110.683 6.66205 111.049 2.78224 111.049H0V112.291ZM12.0074 110.464V110.317C12.9582 109.439 13.3252 108.268 13.3252 106.584V64.3424C13.3252 62.6578 12.9582 61.4134 12.0074 60.5349V60.4615H18.5227C26.5748 60.4615 31.8468 64.4147 31.8468 70.3451C31.8468 76.1286 26.7226 80.2286 19.6203 80.2286H16.3999V81.4729H20.6455C30.6758 81.4729 37.8495 87.7691 37.8495 96.554C37.8495 104.9 31.1874 110.464 21.1582 110.464H12.0074Z" fill="#FFBA80"/>
<path d="M247.174 90.0823H267.056V89.0496H264.358C260.607 89.0496 260.098 88.7656 260.098 85.357V8.50513C260.098 5.09647 260.595 4.81357 264.358 4.81357H267.056V4.03186H247.174V4.67105H249.873C253.637 4.67105 253.991 4.96672 253.991 8.36368V85.357C253.991 88.7529 253.625 89.0496 249.873 89.0496H247.174V90.0823Z" fill="#FFBA80"/>
<path d="M208.197 55.0863H227.086C239.015 55.0863 246.968 49.8324 246.968 41.9505C246.968 34.0685 239.015 28.8135 227.086 28.8135H221.121V8.50513C221.121 5.09647 221.617 4.67105 225.381 4.67105H228.079V4.03186H208.197V4.67105H210.896C214.659 4.67105 215.085 4.95502 215.085 8.36368V50.613C215.085 54.0217 214.659 54.3759 210.896 54.3759H208.197V55.0863ZM221.121 30.0217H225.595C235.11 30.0217 240.222 34.21 240.222 41.9505C240.222 49.6899 235.11 53.809 225.595 53.809H219.843V53.6665C220.765 52.8146 221.121 51.6787 221.121 50.0451V30.0217Z" fill="#FFBA80"/>
<path d="M166.238 59.801H185.34V59.1618H183.422C179.659 59.1618 179.162 58.8077 179.162 55.399V35.2044H185.907C197.695 35.2044 205.506 28.9561 205.506 19.6532C205.506 10.2802 197.695 4.03186 185.907 4.03186H166.238V4.67105H168.937C172.7 4.67105 173.126 5.02734 173.126 8.43494V55.399C173.126 58.8066 172.699 59.1618 168.937 59.1618H166.238V59.801ZM177.883 5.3815H183.564C193.435 5.3815 198.688 10.3514 198.688 19.6532C198.688 28.9561 193.435 33.926 183.564 33.926H179.162V10.1387C179.162 8.50514 178.806 6.87259 177.883 5.73566V5.3815Z" fill="#FFBA80"/>
<path d="M58.9652 52.9635C64.4127 48.0085 70.9471 41.6357 70.9822 25.3113L71.0332 1.36028H87.6001C85.3124 2.27918 84.2403 5.51768 84.2286 7.18L83.8724 52.9635H58.9652ZM43.2162 52.9635L45.0008 67.0162H46.6844L46.2388 59.0066C46.0378 55.3863 46.6919 54.3227 50.6961 54.3227H90.6131C94.6173 54.3227 95.4799 55.2119 95.4724 59.2278C95.4671 61.8548 95.0768 64.42 94.2536 67.0162H96.3084C98.1164 62.6631 98.7662 58.1983 98.093 52.9635H91.0821L90.6886 6.15368C90.6588 2.52699 91.1417 0.68067 95.1459 0.68067H98.093V0H58.8748V0.68067H60.6881C65.7166 0.68067 67.5405 0.427545 67.6309 4.69556L67.9745 20.7168C68.3127 36.5115 58.3175 46.9492 48.1415 52.9635H43.2162Z" fill="#FFBA80"/>
<path d="M71.0874 67.5776C59.5426 67.5776 53.3368 72.9155 53.3368 82.9246C53.3368 93.2006 60.4105 98.7395 73.5559 98.7395C85.1007 98.7395 91.3065 93.4016 91.3065 83.3915C91.3065 73.0485 84.2328 67.5776 71.0874 67.5776ZM92.5072 83.2585C92.5072 96.404 84.4328 105.212 72.2882 105.212C60.2105 105.212 52.1361 96.404 52.1361 83.2585C52.1361 69.9802 60.2105 61.1719 72.2882 61.1719C84.4328 61.1719 92.5072 69.9802 92.5072 83.2585Z" fill="#FFBA80"/>
<path d="M126.91 54.4131C112.707 54.4131 105.124 45.5197 105.124 29.0433C105.124 14.2185 112.57 6.22064 126.359 6.22064C140.424 6.22064 148.008 15.1161 148.008 31.5947C148.008 46.4163 140.631 54.4131 126.91 54.4131ZM161.773 59.884V59.2448H159.075C155.312 59.2448 154.814 58.9619 154.814 55.5532V8.50513C154.814 5.09541 155.312 4.81357 159.075 4.81357H161.773V4.03186H144.407V4.67105H145.428C147.616 4.67105 148.707 4.95821 148.707 8.36368V13.7569C143.795 8.2116 136.095 4.97948 126.635 4.97948C109.743 4.97948 98.5056 15.1161 98.5056 30.2844C98.5056 45.5197 109.743 55.6553 126.635 55.6553C136.095 55.6553 143.795 52.4232 148.707 46.8683V55.5532C148.707 62.3567 152.676 59.884 161.773 59.884Z" fill="#FFBA80"/>
<path fill-rule="evenodd" clip-rule="evenodd" d="M117.626 64.5478C106.412 64.5478 108.441 74.1197 108.441 80.0309V89.8432C108.441 105.519 95.5627 116 76.2785 116C66.1355 116 56.6604 112.598 53.257 106.192L53.7909 105.846C57.1273 111.985 66.2684 115.056 75.1437 115.056C91.6936 115.056 102.703 106.058 102.703 92.4446V78.8972C102.703 73.1104 102.411 63.9033 116.449 63.8459L135.915 63.7661V64.5478H133.217C129.463 64.5478 128.956 64.0075 128.956 67.4056V107.577C128.956 110.976 129.465 111.27 133.217 111.27H135.915V112.303H116.033V111.27H118.73C122.478 111.27 122.849 110.969 122.849 107.577V70.5983C122.849 68.3819 123.893 65.4784 125.675 64.5478C122.458 64.5478 120.085 64.5478 117.626 64.5478Z" fill="#FFBA80"/>
<path fill-rule="evenodd" clip-rule="evenodd" d="M125.482 22.6747H127.029C127.029 26.5024 130.161 29.6345 133.99 29.6345V31.1809C130.161 31.1809 127.029 34.3131 127.029 38.1408H125.482C125.482 34.3131 122.35 31.1809 118.523 31.1809V29.6345C122.35 29.6345 125.482 26.5024 125.482 22.6747Z" fill="#FFBA80"/>
</svg>
