<svg width="234" height="83" viewBox="0 0 234 83" fill="none" xmlns="http://www.w3.org/2000/svg">
<path d="M204.71 80.3175H219.463C227.58 80.3175 233.931 76.0187 233.931 70.0503C233.931 65.1807 229.204 60.1674 222.424 59.7374V59.5472C227.246 58.9262 229.968 55.5839 229.968 52.8627C229.968 48.5174 224.954 45.6531 217.506 45.6531H204.71V46.0823H206.525C209.055 46.0823 209.341 46.3212 209.341 48.6133V76.9737C209.341 79.2658 209.055 79.504 206.525 79.504H204.71V80.3175ZM212.54 79.122V79.0269C213.161 78.4539 213.4 77.6898 213.4 76.5917V49.0433C213.4 47.9444 213.161 47.1332 212.54 46.5602V46.5122H216.79C222.041 46.5122 225.479 49.0905 225.479 52.9578C225.479 56.73 222.137 59.4041 217.506 59.4041H215.405V60.2153H218.174C224.716 60.2153 229.395 64.3216 229.395 70.0503C229.395 75.4936 225.049 79.122 218.509 79.122H212.54Z" fill="white"/>
<path d="M184.066 79.504C174.231 79.504 168.978 73.3454 168.978 61.9344C168.978 51.6687 174.135 46.1302 183.684 46.1302C193.424 46.1302 198.677 52.2896 198.677 63.7006C198.677 73.9656 193.567 79.504 184.066 79.504ZM183.876 80.3632C195.478 80.3632 203.26 73.3454 203.26 62.7935C203.26 52.2896 195.478 45.2711 183.876 45.2711C172.177 45.2711 164.395 52.2896 164.395 62.7935C164.395 73.3454 172.177 80.3632 183.876 80.3632Z" fill="white"/>
<path d="M132.644 80.3571H147.397C155.514 80.3571 161.865 76.0187 161.865 70.0503C161.865 65.1807 157.138 60.1674 150.358 59.7374V59.5472C155.18 58.9262 157.902 54.0521 157.902 51.3315C157.902 46.9856 152.881 42.3314 145.44 42.3314H132.985V42.7887L134.57 42.791C136.792 42.7925 137.275 43.0474 137.275 45.3319V76.9737C137.275 79.2613 136.985 79.504 134.459 79.504H132.644V80.3571ZM140.474 79.122V79.0269C141.095 78.4539 141.333 77.6898 141.333 76.5917V45.7619C141.333 44.663 141.095 43.8122 140.474 43.2385V43.1905H144.724C149.976 43.1905 153.413 47.5586 153.413 51.4259C153.413 55.1989 150.07 59.4041 145.44 59.4041H143.339V60.2153H146.108C152.65 60.2153 157.329 64.3216 157.329 70.0503C157.329 75.4936 152.983 79.122 146.443 79.122H140.474Z" fill="white"/>
<path d="M99.2158 80.3503H109.718V79.5413H107.692C105.772 79.5413 104.973 79.2347 104.973 78.4143C104.973 77.7994 105.4 76.8779 106.2 75.5462L113.557 62.894L120.434 75.7509C121.127 76.8261 121.554 77.6465 121.554 78.2598C121.554 79.1312 120.647 79.5413 118.461 79.5413H117.235V80.402H130.829V79.5413H129.817C127.951 79.5413 127.47 78.568 125.552 75.5462L117.075 59.7184L122.913 50.3347C124.939 47.0564 125.739 46.3395 127.498 46.3395H128.191V45.8783H118.381V46.3395H120.46C122.327 46.3395 123.073 46.6469 123.073 47.4148C123.073 48.0297 122.647 48.952 121.794 50.2327L116.489 58.6934L111.623 49.2434C110.93 47.9634 109.491 46.6827 108.638 46.427V46.3243H111.837V45.8631H101.761V46.3243H102.453C104.053 46.3243 105.226 47.0411 106.985 50.3202L113.023 61.9207L105.027 75.5971C103.054 78.8755 102.148 79.6441 99.7493 79.6441H99.2158V80.3503Z" fill="white"/>
<path d="M0.37207 80.3464H16.5582C25.4641 80.3464 32.4309 75.6344 32.4309 69.0861C32.4309 63.7432 27.2455 58.2428 19.8069 57.771V57.5625C25.0973 56.8814 28.0826 53.2142 28.0826 50.2281C28.0826 45.4613 22.583 42.3184 14.4107 42.3184H0.37207V42.7895H2.36281C5.13889 42.7895 5.45318 43.052 5.45318 45.5663V76.6815C5.45318 79.1958 5.13889 79.4576 2.36281 79.4576H0.37207V80.3464ZM8.9636 79.0391V78.934C9.64393 78.3055 9.90647 77.4676 9.90647 76.263V46.0381C9.90647 44.8327 9.64393 43.9424 8.9636 43.3138V43.2613H13.6254C19.3868 43.2613 23.159 46.0899 23.159 50.3331C23.159 54.4714 19.4926 57.405 14.4107 57.405H12.1065V58.2953H15.1443C22.3212 58.2953 27.454 62.8004 27.454 69.0861C27.454 75.0576 22.6872 79.0391 15.5111 79.0391H8.9636Z" fill="white"/>
<path d="M177.23 64.4556H191.456V63.7166H189.525C186.841 63.7166 186.477 63.5134 186.477 61.0745V6.08563C186.477 3.64667 186.833 3.44424 189.525 3.44424H191.456V2.88492H177.23V3.34227H179.16C181.854 3.34227 182.107 3.55383 182.107 5.98442V61.0745C182.107 63.5043 181.845 63.7166 179.16 63.7166H177.23V64.4556Z" fill="white"/>
<path d="M149.34 39.4153H162.856C171.392 39.4153 177.082 35.656 177.082 30.0164C177.082 24.3767 171.392 20.6167 162.856 20.6167H158.588V6.08563C158.588 3.64667 158.943 3.34227 161.636 3.34227H163.567V2.88492H149.34V3.34227H151.272C153.964 3.34227 154.269 3.54546 154.269 5.98442V36.2146C154.269 38.6536 153.964 38.907 151.272 38.907H149.34V39.4153ZM158.588 21.4811H161.789C168.597 21.4811 172.255 24.4779 172.255 30.0164C172.255 35.5541 168.597 38.5014 161.789 38.5014H157.674V38.3994C158.334 37.7898 158.588 36.9771 158.588 35.8082V21.4811Z" fill="white"/>
<path d="M119.318 42.7888H132.986V42.3314H131.614C128.922 42.3314 128.566 42.078 128.566 39.639V25.1894H133.392C141.826 25.1894 147.415 20.7186 147.415 14.0623C147.415 7.35571 141.826 2.88492 133.392 2.88492H119.318V3.34227H121.249C123.942 3.34227 124.247 3.5972 124.247 6.0354V39.639C124.247 42.0772 123.941 42.3314 121.249 42.3314H119.318V42.7888ZM127.651 3.85061H131.715C138.778 3.85061 142.537 7.4067 142.537 14.0623C142.537 20.7186 138.778 24.2747 131.715 24.2747H128.566V7.2545C128.566 6.08563 128.311 4.91751 127.651 4.10402V3.85061Z" fill="white"/>
<path d="M42.5626 37.8964C46.4604 34.3509 51.1359 29.7911 51.161 18.1107L51.1975 0.973302H63.0514C61.4145 1.63079 60.6475 3.948 60.6391 5.13742L60.3842 37.8964H42.5626ZM31.2939 37.8964L32.5709 47.9513H33.7755L33.4567 42.2203C33.3128 39.6299 33.7808 38.8689 36.646 38.8689H65.2073C68.0724 38.8689 68.6896 39.5051 68.6842 42.3786C68.6804 44.2582 68.4011 46.0937 67.8121 47.9513H69.2824C70.576 44.8366 71.041 41.6419 70.5593 37.8964H65.5429L65.2613 4.40307C65.24 1.8081 65.5855 0.487032 68.4506 0.487032H70.5593V0H42.4979V0.487032H43.7954C47.3934 0.487032 48.6985 0.305916 48.7631 3.35975L49.0089 14.8233C49.2509 26.1247 42.0992 33.593 34.8181 37.8964H31.2939Z" fill="white"/>
<path d="M51.2364 48.3531C42.9759 48.3531 38.5355 52.1724 38.5355 59.3341C38.5355 66.6867 43.5969 70.65 53.0027 70.65C61.2632 70.65 65.7035 66.8306 65.7035 59.6682C65.7035 52.2676 60.6422 48.3531 51.2364 48.3531ZM66.5627 59.573C66.5627 68.9788 60.7853 75.2813 52.0956 75.2813C43.4538 75.2813 37.6764 68.9788 37.6764 59.573C37.6764 50.0721 43.4538 43.7696 52.0956 43.7696C60.7853 43.7696 66.5627 50.0721 66.5627 59.573Z" fill="white"/>
<path d="M91.1783 38.9336C81.0161 38.9336 75.5902 32.5702 75.5902 20.781C75.5902 10.1736 80.9179 4.45103 90.7841 4.45103C100.848 4.45103 106.275 10.8159 106.275 22.6066C106.275 33.2117 100.996 38.9336 91.1783 38.9336ZM116.123 42.8481V42.3908H114.193C111.5 42.3908 111.144 42.1883 111.144 39.7494V6.08563C111.144 3.6459 111.5 3.44424 114.193 3.44424H116.123V2.88492H103.698V3.34227H104.429C105.994 3.34227 106.775 3.54774 106.775 5.98442V9.84338C103.26 5.87559 97.7501 3.56296 90.9819 3.56296C78.8952 3.56296 70.8546 10.8159 70.8546 21.6691C70.8546 32.5702 78.8952 39.8224 90.9819 39.8224C97.7501 39.8224 103.26 37.5098 106.775 33.5352V39.7494C106.775 44.6174 109.615 42.8481 116.123 42.8481Z" fill="white"/>
<path fill-rule="evenodd" clip-rule="evenodd" d="M84.5357 46.185C76.5118 46.185 77.9638 53.0339 77.9638 57.2634V64.2843C77.9638 75.5005 68.749 83 54.9508 83C47.6933 83 40.9137 80.5656 38.4785 75.9822L38.8605 75.7349C41.2477 80.1273 47.7884 82.3242 54.1389 82.3242C65.9806 82.3242 73.8583 75.8863 73.8583 66.1457V56.4522C73.8583 52.3117 73.649 45.7239 83.6933 45.6828L97.6216 45.6257V46.185H95.691C93.0055 46.185 92.6425 45.7984 92.6425 48.2298V76.973C92.6425 79.4051 93.007 79.6159 95.691 79.6159H97.6216V80.3548H83.3957V79.6159H85.3256C88.0073 79.6159 88.2729 79.4005 88.2729 76.973V50.5143C88.2729 48.9284 89.0202 46.8509 90.2948 46.185C87.9928 46.185 86.2951 46.185 84.5357 46.185Z" fill="white"/>
<path fill-rule="evenodd" clip-rule="evenodd" d="M90.157 16.2242H91.2635C91.2635 18.963 93.5046 21.2041 96.2441 21.2041V22.3106C93.5046 22.3106 91.2635 24.5517 91.2635 27.2905H90.157C90.157 24.5517 87.9159 22.3106 85.1771 22.3106V21.2041C87.9159 21.2041 90.157 18.963 90.157 16.2242Z" fill="white"/>
</svg>
